<svg width="500" height="500" viewBox="0 0 500 500" fill="none" xmlns="http://www.w3.org/2000/svg">
<path d="M371.421 431.883C356.481 426.033 347.275 413.26 336.443 402.551C309.97 376.378 283.805 349.898 257.507 323.557C253.86 319.903 250.249 316.19 246.398 312.761C242.408 309.216 239.599 304.934 237.943 299.974C234.675 290.206 228.686 282.467 221.187 275.573C206.759 262.304 193.249 248.102 179.404 234.242C176.041 230.879 175.975 230.719 172.773 234.293C170.957 236.321 169.935 236.401 167.973 234.322C162.218 228.209 156.119 222.417 150.269 216.385C148.132 214.174 146.95 214.174 144.871 216.757C131.573 233.308 125.256 252.274 124.847 273.312C124.65 283.371 124.745 292.263 124.898 302.33C124.935 304.839 123.454 306.444 120.551 306.583C113.329 306.503 113.103 306.503 101.264 306.663C88.0457 306.065 78.2635 299.726 71.8442 288.178C69.2765 283.911 68.6492 283.298 68 281.256C68 275.435 68 269.614 68 263.792C68.6273 257.833 69.2619 251.873 69.8893 245.913C72.0996 226.437 77.8332 207.974 85.602 190.036C90.5113 178.708 96.7409 168.167 103.306 157.779C103.911 156.824 104.408 156.138 103.955 154.862C100.33 144.562 101.803 134.838 109.062 126.814C116.021 119.103 122.805 110.97 131.923 105.586C138.838 101.501 146.417 101.1 153.989 103.588C155.747 104.164 156.798 104.047 158.213 103.099C170.118 95.0601 182.708 88.1812 196.036 82.9072C211.449 76.8089 227.308 72.1768 243.867 70.003C253.517 68.741 263.124 67.8583 272.848 68.0188C286.124 68.2377 295.542 74.7956 302.297 85.7667C305.557 91.0626 306.834 96.8691 306.739 103.062C306.651 109.124 306.739 103.062 306.79 120.577C306.907 123.553 304.828 124.881 302.07 124.866C290.552 124.8 280.026 124.523 268.53 125.092C249.199 126.055 231.845 132.555 216.709 144.853C214.053 147.013 214.345 148.245 216.475 150.295C222.267 155.875 227.884 161.646 233.712 167.189C236.098 169.451 236.783 171.238 233.669 173.339C231.232 174.987 231.239 176.373 233.559 178.679C249.418 194.428 265.138 210.315 280.741 226.313C285.847 231.543 291.945 234.964 298.62 237.51C304.667 239.822 309.795 243.294 314.384 247.919C344.853 278.601 375.455 309.143 405.997 339.752C412.351 346.12 418.96 352.225 424.832 359.068C432.389 367.872 433.863 383.519 428.786 393.841C424.372 402.799 416.677 408.657 410.104 415.579C405.253 420.7 400.541 426.062 393.742 428.892C392.188 429.541 390.379 429.731 388.913 430.606C388.913 430.606 385.336 431.499 380.77 431.871C377.136 432.167 371.435 431.861 371.435 431.861L371.421 431.883ZM132.966 155.547C133.054 156.941 131.959 157.699 131.259 158.64C128.4 162.492 125.329 166.19 122.644 170.151C109.973 188.898 100.964 209.221 95.7926 231.324C92.6559 244.732 91.3283 258.285 90.9344 271.97C90.7812 277.404 93.5313 280.825 98.5135 283.145C101.439 284.509 102.037 283.765 102.044 280.84C102.059 271.043 102.008 261.298 104.043 251.559C106.341 240.574 110.075 230.215 115.262 220.367C122.622 206.384 132.842 194.647 144.528 184.077C146.957 181.881 148.496 182.041 150.656 184.266C156.396 190.189 162.429 195.828 168.082 201.832C170.03 203.903 171.124 203.48 172.656 201.737C173.75 200.49 174.757 199.067 176.537 198.659C177.004 199.359 177.369 200.154 177.952 200.738C199.099 221.856 220.203 243.025 241.481 264.019C247.813 270.27 253.401 276.77 256.253 285.465C257.931 290.578 260.79 295.101 264.809 299.077C289.64 323.652 314.238 348.461 338.945 373.154C349.974 384.176 360.997 395.205 372.23 406.023C376.884 410.51 382.713 410.313 387.469 405.819C393.516 400.107 399.425 394.235 405.231 388.283C410.746 382.622 410.476 376.531 404.764 370.812C372.58 338.599 340.331 306.466 308.278 274.129C299.561 265.332 290.873 256.804 278.531 253.208C276.284 252.551 274.088 251.326 272.337 249.575C257.31 234.497 242.305 219.405 227.242 204.37C217.795 194.938 208.247 185.608 198.742 176.235C199.201 174.783 200.303 173.791 201.448 172.952C203.761 171.245 203.709 169.874 201.609 167.846C195.656 162.105 189.944 156.109 184.05 150.295C182.059 148.333 181.738 146.816 183.97 144.678C187.785 141.031 191.236 137.026 195.116 133.423C213.134 116.718 234.194 106.396 258.514 102.807C265.86 101.727 273.271 102.034 280.653 102.107C283.688 102.136 284.184 101.355 282.988 98.5323C280.814 93.3969 277.342 90.7635 271.542 90.9094C252.853 91.369 234.544 93.9805 216.687 99.8818C199.048 105.71 182.672 113.822 167.492 124.494C163.494 127.302 160.088 130.95 155.55 132.985C153.369 130.775 151.276 128.47 148.971 126.391C146.549 124.209 143.704 124.275 141.435 126.405C136.278 131.271 131.259 136.304 126.394 141.461C124.118 143.876 124.147 146.706 126.576 149.208C128.67 151.36 130.829 153.439 132.959 155.547H132.966Z" fill="black"/>
<path d="M198.863 176.221C208.368 185.594 217.916 194.924 227.363 204.356C242.433 219.39 257.431 234.49 272.458 249.561C274.209 251.319 276.405 252.544 278.651 253.194C290.994 256.79 299.682 265.317 308.399 274.115C340.451 306.452 372.708 338.592 404.885 370.798C410.597 376.517 410.867 382.615 405.352 388.269C399.545 394.228 393.637 400.093 387.59 405.805C382.841 410.298 377.005 410.495 372.351 406.009C361.125 395.191 350.102 384.154 339.066 373.139C314.351 348.447 289.754 323.638 264.93 299.062C260.918 295.087 258.051 290.564 256.374 285.451C253.521 276.763 247.934 270.256 241.602 264.004C220.331 243.01 199.227 221.841 178.073 200.723C177.489 200.14 177.125 199.345 176.658 198.644C178.576 194.574 182.493 192.335 185.419 189.205C189.671 184.653 193.968 180.116 198.855 176.206L198.863 176.221Z" fill="#EBA300"/>
<path d="M198.759 176.272C193.865 180.182 189.575 184.719 185.322 189.271C182.39 192.408 178.48 194.64 176.562 198.71C174.774 199.119 173.775 200.541 172.674 201.789C171.134 203.539 170.047 203.955 168.1 201.884C162.446 195.88 156.421 190.234 150.673 184.318C148.514 182.093 146.975 181.933 144.545 184.128C132.867 194.698 122.647 206.428 115.279 220.419C110.1 230.26 106.358 240.625 104.06 251.611C102.025 261.349 102.076 271.095 102.061 280.892C102.061 283.817 101.463 284.561 98.5308 283.197C93.5486 280.877 90.7985 277.456 90.9517 272.022C91.3456 258.337 92.6659 244.783 95.8099 231.376C100.982 209.28 109.983 188.95 122.661 170.203C125.346 166.235 128.417 162.536 131.276 158.692C131.977 157.751 133.071 156.992 132.983 155.599C133.107 155.599 133.282 155.65 133.334 155.592C140.439 147.896 147.886 140.528 155.546 133.387C155.611 133.329 155.56 133.153 155.568 133.029C160.105 130.994 163.519 127.347 167.509 124.539C182.689 113.859 199.066 105.755 216.704 99.9264C234.561 94.025 252.864 91.4136 271.56 90.954C277.359 90.8081 280.831 93.4415 283.005 98.5769C284.194 101.4 283.705 102.18 280.671 102.151C273.289 102.078 265.87 101.772 258.531 102.852C234.211 106.441 213.151 116.762 195.134 133.467C191.246 137.071 187.795 141.075 183.988 144.723C181.748 146.86 182.076 148.37 184.068 150.34C189.955 156.153 195.674 162.15 201.626 167.891C203.727 169.918 203.778 171.29 201.466 172.997C200.328 173.836 199.226 174.828 198.759 176.279V176.272Z" fill="#CCCCCC"/>
<path d="M155.662 133.038C155.662 133.162 155.705 133.33 155.64 133.396C147.98 140.537 140.533 147.905 133.428 155.601C133.369 155.659 133.194 155.608 133.077 155.608C130.947 153.5 128.788 151.413 126.695 149.269C124.266 146.767 124.236 143.936 126.512 141.522C131.378 136.365 136.397 131.331 141.554 126.466C143.815 124.336 146.667 124.263 149.089 126.451C151.394 128.53 153.481 130.835 155.669 133.046L155.662 133.038Z" fill="#EBA300"/>
</svg>
